<svg viewBox="0 0 1000 1001.0101" xmlns="http://www.w3.org/2000/svg"><path d="m508 189.456v623h372v-623zm309 475h-247v-18h247zm0-64h-247v-18h247zm0-64h-247v-17h247zm0-59h-247v-17h247zm0-63h-247v-18h247zm0-60h-247v-18h247zm-309-218v22h405v677h-405v29h430v-728zm-388 676h373v-623h-373zm212-442c1-15 13-27 28-27 9 0 17 7 17 16v221c0 8-7 14-14 14h-11c-4 0-7-2-10-4-2-3-3-6-3-10l2-84c-5 0-9-2-13-6-3-3-4-8-4-13zm-96-22c0-3 2-5 5-5h1c3 0 5 2 5 5v47c0 4 4 8 8 8h1c4 0 8-4 8-8v-47c0-3 2-5 4-5h2c2 0 4 2 4 5v47c0 4 4 8 8 8h1c5 0 8-4 8-8v-47c0-3 2-5 5-5h1c3 0 5 2 5 5v71c0 9-7 16-16 16h-3l4 145c0 4-1 7-3 10-3 2-6 4-10 4h-11c-3 0-7-2-9-4-3-3-4-6-4-10l5-145h-2c-9 0-17-7-17-16zm-173 516h430v-29h-406v-677h406v-22h-430z"/></svg>